<svg
        xmlns="http://www.w3.org/2000/svg"
        width="257"
        height="309"
        viewBox="0 0 257 309"
        fill="none"
        className="svg replaced-svg"
      >
        <path
          d="M89.2363 64.3769C104.233 72.772 120.841 77.8875 137.962 79.3852C154.992 80.9473 172.747 77.9974 187.282 69.0856C188.489 68.2028 189.871 67.5874 191.335 67.2804C193.109 67.2286 194.863 67.6707 196.401 68.5573C215.651 77.5245 233.422 89.373 249.102 103.695C229.166 114.071 207.798 121.427 185.699 125.522C185.699 125.522 129.032 135.873 72.7726 117.479C63.6388 114.68 54.7824 111.045 46.3159 106.621C36.1297 100.971 26.7745 93.938 18.5167 85.7228C32.403 77.6837 47.0522 71.041 62.2492 65.8923C69.1872 63.5225 75.8756 61.6137 82.2382 60.055C83.999 61.2013 86.3327 62.6939 89.2363 64.3769Z"
          stroke="#54565A"
          stroke-width="3"
          stroke-miterlimit="10"
        ></path>
        <path
          d="M82.4564 60.0764C85.8376 49.0184 89.3655 37.6802 96.5099 28.5396C109.692 11.7809 134.464 5.96754 154.375 13.5989C174.287 21.2303 188.487 41.0191 191.09 62.18C191.354 64.3812 191.358 66.9731 189.61 68.333"
          stroke="#54565A"
          stroke-width="3"
          stroke-miterlimit="10"
        ></path>
        <path
          d="M27.7683 94.8467C29.5868 102.031 32.8071 108.785 37.2443 114.72C42.3759 121.497 56.4507 136.627 140.935 140.386C196.478 142.854 213.397 137.34 225.214 125.656C229.773 121.138 233.503 115.855 236.235 110.047"
          stroke="#54565A"
          stroke-width="3"
          stroke-miterlimit="10"
        ></path>
        <path
          d="M63.3128 78.0128C65.0068 76.7199 66.9437 75.7814 69.0082 75.2528C71.6212 74.3683 74.4571 74.3969 77.0517 75.3341C78.4714 76.0336 79.6945 77.0756 80.6107 78.3661C81.5269 79.6567 82.1073 81.1552 82.2995 82.7262C82.6508 85.8927 82.0011 89.0895 80.4417 91.8677C79.7229 93.4257 78.6045 94.7657 77.2002 95.7514C75.5639 96.5958 73.7443 97.0224 71.9033 96.9932C68.838 97.3692 65.7295 96.85 62.9528 95.4984C56.7267 91.9903 58.4062 81.9683 63.3128 78.0128Z"
          stroke="#54565A"
          stroke-width="3"
          stroke-miterlimit="10"
        ></path>
        <path
          d="M100.824 95.6907C101.127 94.2012 101.761 92.7989 102.679 91.5881C103.598 90.3772 104.778 89.389 106.131 88.6967C108.487 87.7214 111.053 87.3622 113.586 87.6529C115.403 87.6626 117.191 88.0989 118.808 88.9265C121.657 90.6391 122.71 94.2256 123.03 97.5203C123.35 100.815 123.065 104.296 120.973 106.765C119.881 107.898 118.549 108.772 117.076 109.324C115.602 109.877 114.024 110.093 112.456 109.957C103.896 109.673 98.9422 104.156 100.824 95.6907Z"
          stroke="#54565A"
          stroke-width="3"
          stroke-miterlimit="10"
        ></path>
        <path
          d="M148.184 105.392C147.478 103.157 147.544 100.75 148.372 98.5567C149.2 96.3638 150.741 94.5133 152.749 93.3027C154.258 92.5274 155.904 92.0505 157.594 91.8984C162.135 91.3647 167.143 92.5152 170.053 96.0128C171.501 97.8892 172.304 100.183 172.342 102.553C172.379 104.922 171.651 107.241 170.264 109.163C168.81 110.999 166.862 112.381 164.649 113.149C162.437 113.916 160.051 114.035 157.773 113.493C154.345 111.313 149.83 110.433 148.184 105.392Z"
          stroke="#54565A"
          stroke-width="3"
          stroke-miterlimit="10"
        ></path>
        <path
          d="M187.523 100.671C186.718 98.9069 186.351 96.9741 186.454 95.0373C186.556 93.1006 187.125 91.2172 188.112 89.5474C188.834 88.1979 189.863 87.0376 191.117 86.1605C192.924 85.1092 194.979 84.5582 197.069 84.5641C198.762 84.38 200.476 84.5621 202.093 85.0979C203.71 85.6337 205.193 86.5107 206.442 87.6697C207.415 88.8505 208.099 90.2425 208.439 91.7345C208.779 93.2264 208.766 94.7771 208.4 96.2631C206.369 105.786 192.624 110.797 187.523 100.671Z"
          stroke="#54565A"
          stroke-width="3"
          stroke-miterlimit="10"
        ></path>
        <path
          d="M122.625 56.7302C120.457 52.6786 116.92 46.0308 119.601 38.4676C120.797 34.9542 123.023 31.8825 125.989 29.6524C128.956 27.4223 132.526 26.1372 136.233 25.9645C139.94 25.7919 143.614 26.7397 146.775 28.6845C149.936 30.6292 152.438 33.4808 153.955 36.8678C158.973 47.9014 149.193 59.0289 146.337 62.2914C143.731 65.2659 140.705 68.6856 136.392 68.8083C129.155 68.9737 124.166 59.7049 122.625 56.7302Z"
          stroke="#54565A"
          stroke-width="3"
          stroke-miterlimit="10"
        ></path>
        <path
          d="M141.108 54.6573C140.92 53.6604 140.97 52.6331 141.255 51.6593C141.539 50.6856 142.05 49.7929 142.745 49.0541C143.902 47.5535 145.799 46.0862 147.524 46.8664C148.039 47.1365 148.468 47.5444 148.764 48.0445C149.06 48.5446 149.211 49.1171 149.2 49.6981C149.158 50.8771 148.845 52.0307 148.286 53.0696C147.761 54.3588 146.927 55.4988 145.856 56.3886C145.317 56.826 144.666 57.1037 143.977 57.1901C143.288 57.2766 142.589 57.1683 141.959 56.8776C141.659 56.7124 141.399 56.4853 141.194 56.2117C140.989 55.9381 140.845 55.6241 140.771 55.2905C140.697 54.9569 140.695 54.6113 140.765 54.2768C140.835 53.9423 140.975 53.6266 141.176 53.3505"
          fill="#54565A"
        ></path>
        <path
          d="M141.108 54.6573C140.92 53.6604 140.97 52.6331 141.255 51.6593C141.539 50.6856 142.05 49.7929 142.745 49.0541C143.902 47.5535 145.799 46.0862 147.524 46.8664C148.039 47.1365 148.468 47.5444 148.764 48.0445C149.06 48.5446 149.211 49.1171 149.2 49.6981C149.158 50.8771 148.845 52.0307 148.286 53.0696C147.761 54.3588 146.927 55.4988 145.856 56.3886C145.317 56.826 144.666 57.1037 143.977 57.1901C143.288 57.2766 142.589 57.1683 141.959 56.8776C141.659 56.7124 141.399 56.4853 141.194 56.2117C140.989 55.9381 140.845 55.6241 140.771 55.2905C140.697 54.9569 140.695 54.6113 140.765 54.2768C140.835 53.9423 140.975 53.6266 141.176 53.3505"
          stroke="#54565A"
          stroke-width="3"
          stroke-miterlimit="10"
        ></path>
        <path
          d="M125.29 51.4282C124.927 49.5463 124.79 47.2704 126.268 46.041C126.953 45.5804 127.773 45.3612 128.596 45.418C129.42 45.4748 130.202 45.8045 130.817 46.3548C132.022 47.488 132.852 48.9627 133.194 50.5809C133.696 52.4583 133.768 54.8665 132.118 55.9072C131.615 56.1863 131.048 56.3292 130.473 56.3219C129.898 56.3146 129.335 56.1574 128.839 55.8656C127.858 55.2624 127.034 54.4347 126.435 53.4509C125.736 52.5944 125.358 51.5211 125.365 50.4158"
          fill="#54565A"
        ></path>
        <path
          d="M125.29 51.4282C124.927 49.5463 124.79 47.2704 126.268 46.041C126.953 45.5804 127.773 45.3612 128.596 45.418C129.42 45.4748 130.202 45.8045 130.817 46.3548C132.022 47.488 132.852 48.9627 133.194 50.5809C133.696 52.4583 133.768 54.8665 132.118 55.9072C131.615 56.1863 131.048 56.3292 130.473 56.3219C129.898 56.3146 129.335 56.1574 128.839 55.8656C127.858 55.2624 127.034 54.4347 126.435 53.4509C125.736 52.5944 125.358 51.5211 125.365 50.4158"
          stroke="#54565A"
          stroke-width="3"
          stroke-miterlimit="10"
        ></path>
        <path
          d="M124.673 60.562C122.864 61.3023 121.263 62.4717 120.007 63.9693C116.981 67.1656 114.257 70.6346 111.869 74.332"
          stroke="#54565A"
          stroke-width="3"
          stroke-miterlimit="10"
        ></path>
        <path
          d="M147.738 60.5854C148.902 60.9108 149.925 61.6121 150.648 62.58C154.607 67.2378 157.203 72.8985 158.149 78.938"
          stroke="#54565A"
          stroke-width="3"
          stroke-miterlimit="10"
        ></path>
        <path
          d="M90.2845 136.534L25.2163 289.892"
          stroke="url(#paint0_linear_1351_6838)"
          stroke-width="3"
          stroke-miterlimit="10"
        ></path>
        <path
          d="M171.598 140.968L223.407 308.07"
          stroke="url(#paint1_linear_1351_6838)"
          stroke-width="3"
          stroke-miterlimit="10"
        ></path>
        <path
          d="M132.272 192.55C133.168 192.512 134.06 192.695 134.87 193.081C135.68 193.468 136.382 194.047 136.916 194.768C138.424 197.061 137.733 200.945 135.777 202.734C134.977 203.459 134 204.187 133.873 205.262C133.88 206.177 134.183 207.065 134.737 207.793C136.471 210.843 137.287 214.33 137.085 217.833C136.989 219.385 136.082 221.382 134.551 221.056C133.487 220.819 133.038 219.533 133.046 218.438C133.053 217.343 133.333 216.217 132.953 215.198C132.903 215.019 132.811 214.854 132.685 214.718C132.558 214.582 132.401 214.478 132.226 214.416C131.671 214.291 131.191 215.575 130.915 216.153C128.581 221.957 126.22 233.729 122.413 234.43C122.062 234.508 121.696 234.491 121.354 234.381C121.011 234.272 120.704 234.073 120.464 233.805C119.466 232.228 122.918 227.297 123.365 224.45C123.432 224.086 123.372 223.71 123.194 223.385C122.959 223.095 122.621 222.905 122.251 222.856C121.881 222.806 121.506 222.9 121.203 223.119C120.603 223.586 120.106 224.173 119.745 224.842C118.415 226.758 116.555 228.243 114.393 229.116C114.011 229.322 113.564 229.374 113.145 229.261C112.303 228.924 112.424 227.709 112.787 226.888C115.12 221.706 121.124 218.719 122.746 213.286C122.893 212.789 122.867 212.573 122.821 212.467C122.49 211.926 121.292 212.326 119.597 212.273C119.054 212.223 116.72 212.158 116.509 211.414C116.299 210.67 117.696 210.019 121.253 207.587C125.502 204.698 125.9 204.205 126.191 203.563C127.241 201.227 125.431 200.011 126.292 197.304C126.704 196.007 127.493 194.863 128.558 194.016C129.623 193.17 130.916 192.659 132.272 192.55Z"
          fill="#54565A"
          stroke="#54565A"
          stroke-width="3"
          stroke-miterlimit="10"
        ></path>
        <defs>
          <linearGradient
            id="paint0_linear_1351_6838"
            x1="90"
            y1="136"
            x2="25"
            y2="291.5"
            gradientUnits="userSpaceOnUse"
          >
            <stop stop-color="#54565A"></stop>
            <stop offset="1" stop-color="#54565A" stop-opacity="0"></stop>
          </linearGradient>
          <linearGradient
            id="paint1_linear_1351_6838"
            x1="173.5"
            y1="144.5"
            x2="223.5"
            y2="308"
            gradientUnits="userSpaceOnUse"
          >
            <stop stop-color="#54565A"></stop>
            <stop offset="1" stop-color="#54565A" stop-opacity="0"></stop>
          </linearGradient>
        </defs>
      </svg>